<?xml version="1.0" encoding="UTF-8"?><svg id="OBJECTS" xmlns="http://www.w3.org/2000/svg" viewBox="0 0 624.12 402.97"><defs><style>.cls-1{fill:#8081b9;}.cls-2{fill:#fff;}.cls-3{fill:#afc1d1;}.cls-4{fill:#abb7c4;}.cls-5{fill:#e8a395;}.cls-6{opacity:.5;}.cls-7{fill:#11b1a9;}.cls-8{fill:#fcb5a4;}.cls-9{fill:#f3f5f7;}.cls-10{fill:#404f5d;}.cls-11{fill:#62788e;}.cls-12{fill:#303a45;}.cls-13{fill:#0b4169;}.cls-14{fill:#fdd6cc;}</style></defs><path class="cls-9" d="M554.04,371.48H65.78S16.9,178.9,227.7,115.41c210.8-63.49,394.93,128.6,326.35,256.07Z"/><path class="cls-7" d="M254.38,307.87h58.89v-36.28h-58.89v36.28ZM293.14,32.3c-41.85,5.15-81.63,30.56-84.98,100.26l41.5,5.34s7.7-23.63,20.87-28.09c13.17-4.46,28.33,3,32.3,14.3,3.98,11.31,4.97,21.99-13.91,34.66-18.88,12.67-41.25,25.84-34.54,96.66h58.89v-15.31c.72-12.07,3.45-28.05,12.42-35.32,15.41-12.49,49.49-32.95,55.56-68.64,13.08-76.8-39.66-109.83-88.12-103.87Z"/><rect class="cls-12" x="549.94" y="204.82" width="4.1" height="166.66"/><polygon class="cls-11" points="603.74 231.58 554.04 231.58 554.04 204.82 603.74 204.82 611.57 218.2 603.74 231.58"/><polygon class="cls-11" points="611.57 279.54 554.04 279.54 554.04 249.23 611.57 249.23 624.12 264.38 611.57 279.54"/><polygon class="cls-11" points="512.86 260.04 549.94 260.04 549.94 235.25 512.86 235.25 501.49 247.64 512.86 260.04"/><g><path class="cls-10" d="M461.3,146.79c-.27,0-.54-.11-.74-.33-.37-.41-.34-1.04,.06-1.41,.06-.05,3.2-2.98,6.01-8.01-3.44-.55-6.51-1.37-9.13-2.4-7.36-2.9-11.49-7.49-11.63-12.93-.26-10.49,6.17-15.41,12.65-15.65,6.72-.23,14.03,4.35,14.45,13.34,.29,6.3-1.24,11.74-3.24,16.06,20.48,2.35,52.1-4.4,76.32-29.11,.39-.39,1.02-.4,1.41-.01,.39,.39,.4,1.02,.01,1.41-24.95,25.45-57.68,32.19-78.69,29.59-3.01,5.63-6.56,8.94-6.83,9.18-.19,.18-.43,.26-.67,.26Zm-2.27-38.73c-.14,0-.29,0-.43,0-5.1,.18-10.96,3.85-10.72,13.6,.11,4.58,3.79,8.53,10.36,11.11,2.67,1.05,5.82,1.87,9.36,2.4,2.04-4.18,3.66-9.52,3.37-15.68-.35-7.51-6.34-11.44-11.95-11.44Z"/><path class="cls-10" d="M32.19,178.66c-13.52,0-24.69-3.75-29.54-10.87-3.75-5.51-5.38-15.37,8.21-31.04,.36-.42,.99-.46,1.41-.1,.42,.36,.46,.99,.1,1.41-10.09,11.64-12.88,21.53-8.07,28.6,7.52,11.04,32.94,13.21,56.67,4.84,5.59-1.97,11.66-4.55,17.54-7.6-2.05-2.22-3.5-4.62-4.36-7.19-1.86-5.58-.87-11.99,2.92-19.03,3.89-7.23,15.54-14.19,23.97-14.32,4.06-.09,7.15,1.44,8.84,4.35,1.56,2.7,1.62,6.2,.17,10.13-2.8,7.59-11.59,17.63-28.1,26.62,2.45,2.13,5.57,4.08,9.34,5.83,20.17,9.36,48.25-6.51,48.53-6.67,.48-.28,1.09-.11,1.36,.37,.27,.48,.11,1.09-.37,1.36-.3,.17-7.36,4.19-17.11,7.08-9.06,2.69-22.19,4.81-33.26-.33-4.23-1.96-7.69-4.18-10.38-6.65-5.36,2.79-11.49,5.47-18.44,7.92-10.07,3.55-20.3,5.27-29.45,5.27Zm69.11-53.3c-.07,0-.15,0-.22,0-7.68,.12-18.7,6.69-22.24,13.27-3.52,6.54-4.46,12.41-2.78,17.45,.81,2.44,2.25,4.73,4.3,6.86,12.67-6.83,24.16-15.84,27.83-25.79,1.24-3.35,1.23-6.27-.03-8.43-1.29-2.23-3.6-3.36-6.85-3.36Z"/></g><path class="cls-12" d="M484.72,370.24s7.7,3.73,13.67-7.45c3.73-5.71,4.72-3.23,5.22-15.9,.25-7.45,3.98-11.18,6.46-13.67,2.48-2.49,3.73-9.69,2.73-12.92s-2.92-6.4,3.98-13.29c6.9-6.9,10.06-13.98,10.62-21.99,.56-8.01-3.17-11-12.11-3.54s-15.1,19.2-16.03,20.31c-.93,1.12-7.45,7.27-7.27,14.91,.19,7.64-1.3,11.37-2.61,13.05-1.3,1.68-6.78,2.11-1.9,23.89-.89,4.63-7.6,10.16-2.76,16.62Z"/><path class="cls-11" d="M484.72,370.24s4.66-10.5,3.17-15.53c-1.49-5.03-7.64-7.64-7.64-7.64,0,0-.37-13.79-2.98-19.01s-10.06-12.11-10.81-14.35c-.75-2.24,.19-9.13-6.34-14.54-6.52-5.4-11.74-10.44-12.86-12.11-1.12-1.68-8.39-3.91-5.78,15.65,1.12,2.98,7.45,13.23,9.5,17.52,2.05,4.29,2.24,9.13,1.49,13.98-.75,4.85,1.68,9.69,6.9,13.05,5.22,3.35,6.34,3.17,7.08,8.39,.75,5.22,8.2,16.15,18.26,14.6Z"/><path class="cls-2" d="M482.02,370.19l-25.88-59.34,26.8,58.93c.11,.25,0,.55-.25,.66-.25,.11-.55,0-.66-.25,0,0,0,0,0,0Z"/><path class="cls-2" d="M487.7,368.1c2.01-6.12,3.99-12.25,5.9-18.41,.95-3.08,1.89-6.16,2.72-9.26,.81-3.12,1.68-6.23,2.6-9.32,1.84-6.18,3.92-12.3,6.33-18.28,1.25-2.97,2.52-5.94,4.04-8.79,1.52-2.84,3.16-5.64,5.25-8.1-2.06,2.49-3.66,5.3-5.14,8.16-1.48,2.86-2.71,5.84-3.92,8.82-2.33,6-4.32,12.14-6.08,18.33-.88,3.1-1.71,6.21-2.47,9.33-.79,3.14-1.7,6.23-2.61,9.32-1.83,6.18-3.73,12.34-5.66,18.49-.08,.26-.36,.41-.63,.33-.26-.08-.41-.36-.33-.63,0,0,0,0,0,0Z"/><path class="cls-13" d="M486.93,353.11c-.25,0-.46-.18-.5-.44-.02-.16-2.07-16.28-2.93-35.92-.8-18.15-.72-43.12,4.19-58.97,.08-.26,.36-.41,.62-.33,.26,.08,.41,.36,.33,.62-9.32,30.11-1.31,93.83-1.23,94.47,.04,.27-.16,.52-.43,.56-.02,0-.04,0-.06,0Z"/><path class="cls-11" d="M488.18,257.92s2.63-9.69,5.61-12.8c2.98-3.11,6.83-.87,5.71,5.34-1.12,6.21-11.32,7.45-11.32,7.45Z"/><path class="cls-11" d="M485.36,271.11s6.12-9.46,8.58-9.59c2.46-.12,4.44,2.24,1.84,6.34-2.61,4.1-11.03,8.2-11.03,8.2l.61-4.95Z"/><path class="cls-11" d="M484.52,278.32s-5.34-3.62-6.45-6.92c-1.12-3.29-.75-8.14,1.24-8.14s4.66,4.72,5.43,10.75l-.22,4.31Z"/><path class="cls-11" d="M486.9,262.71s-3.86-3.73-3.92-7.89c-.06-4.16,1.69-7.33,3.92-5.03,2.23,2.3,.39,11.31,.39,11.31l-.39,1.61Z"/><path class="cls-11" d="M483.78,290.41s4.29-7.77,5.9-9.82c1.61-2.05,5.71-2.73,4.6,3.85-1.12,6.58-9.13,10.62-10.5,10.56v-4.59Z"/><path class="cls-11" d="M483.78,289.42s-1.49-4.41-2.98-5.53-5.72-.56-4.29,5.22c1.43,5.78,6.14,6.59,7.11,5.9,.97-.68,.16,0,.16,0v-5.59Z"/><path class="cls-11" d="M483.78,310.56s2.86-10.52,5.34-13.56c2.48-3.04,5.47-3.42,5.35,1.93-.13,5.34-9.06,11.99-10.65,12.86l-.04-1.22Z"/><path class="cls-11" d="M484.22,321.11s4.34-7.15,6.58-8.15c2.24-.99,4.72,5.9,0,9.5-4.72,3.6-6.32,3.05-6.32,3.05l-.26-4.41Z"/><path class="cls-11" d="M484.22,325.82s-5.91-.5-8.89-4.72c-2.98-4.22-1.57-7.95,.89-7.76,2.46,.19,6.14,6.27,8,12.49Z"/><path class="cls-11" d="M483.63,309.48s-3.03,.45-7.4-4.22c-4.37-4.66-2.69-9.14,1.28-7.09,3.98,2.05,6.27,10.62,6.27,10.62l-.16,.68Z"/><g class="cls-6"><path class="cls-4" d="M510.06,170.21s5.09,1.49,5.84-1.12c.75-2.61-.25-3.48-1.12-4.22-.87-.75-5.59-.87-5.96,1.12-.37,1.99,1.24,4.22,1.24,4.22Z"/></g><g class="cls-6"><path class="cls-4" d="M492.73,175.8s8.01-4.61,8.01-11.43-13.42-9.81-16.96-10c-3.54-.19-10.06,5.96-8.57,17.7,.56,3.54,10.25,8.95,17.52,3.73Z"/></g><g class="cls-6"><path class="cls-4" d="M458.5,266.62s4.35,1.49,5.59-3.35c1.24-4.85-3.48-2.98-4.35-2.61s-4.72,3.73-1.24,5.96Z"/></g><g class="cls-6"><path class="cls-4" d="M446.95,260.91s8.08,.5,9.07-7.7c.99-8.2-5.59-10.44-10.06-10.44s-11.8,3.08-8.82,13.09c.62,2.68,3.48,5.54,9.82,5.04Z"/></g><path class="cls-4" d="M83.67,369.24s14.33,1.86,17.04-15.28c2.71-17.15,.29-14.72,2.9-20.5,2.61-5.78,5.4-11,5.4-21.62s2.42-15.08,4.85-17.79,5.78-9.42,4.85-18.18c-.93-8.76,.93-18.45,2.8-24.97,1.86-6.52,2.61-14.72,.93-19.94-1.68-5.22-9.32-2.42-14.54,5.59-5.22,8.01-13.98,27.58-17.15,32.24-3.17,4.66-4.85,16.23-3.73,25.26s1.33,17.6-2.22,21.14c-3.55,3.54-5.42,17.33-2.81,27.21,2.61,9.88-3.35,24.79,1.68,26.84Z"/><path class="cls-11" d="M84.79,369.24s.37-12.67-3.11-16.9c-3.48-4.22-.5-16.15-13.91-33.55-13.42-17.39,2.48-35.53-9.44-50.44-11.93-14.91-11.93-21.62-11.93-30.07s-1.24-19.7-4.97-21.53c-3.73-1.83-7.7,10.6-6.96,18.8,.75,8.2-12.92,26.09-7.7,42.24,5.22,16.15,5.96,26.09,5.96,31.06s.25,10.93,3.73,13.91,15.16,13.91,8.2,19.38c-6.96,5.47,6.71,26.59,40.13,27.08Z"/><path class="cls-2" d="M80.76,369.01c-4.71-7.73-9.02-15.66-13.12-23.71-4.08-8.05-7.87-16.25-11.37-24.57-3.49-8.33-6.55-16.82-9.27-25.43-2.63-8.63-4.72-17.43-6.19-26.33,1.55,8.89,3.72,17.65,6.43,26.25,2.8,8.57,5.94,17.03,9.5,25.31,3.57,8.27,7.44,16.42,11.58,24.42,4.16,7.99,8.54,15.88,13.3,23.51h0c.15,.24,.07,.55-.16,.7s-.54,.07-.69-.16h0Z"/><path class="cls-2" d="M83.21,368.56c3.05-7.69,5.56-15.63,7.59-23.67,2.11-8.03,3.13-16.29,4.72-24.46,1.53-8.17,3.16-16.33,4.83-24.47,1.7-8.14,3.36-16.29,5.31-24.37-1.87,8.1-3.44,16.27-5.06,24.42-1.59,8.16-3.14,16.33-4.59,24.51-1.51,8.16-2.45,16.45-4.49,24.55-1.96,8.1-4.4,16.07-7.39,23.87-.1,.26-.39,.39-.65,.29-.26-.1-.39-.39-.29-.65h0s0-.02,0-.02Z"/><g class="cls-6"><path class="cls-4" d="M137.34,339.98s2.42-5.78,.93-8.01c-1.49-2.24-9.32-.56-8.95,4.85,.37,5.4,5.03,3.17,8.01,3.17Z"/></g><g class="cls-6"><path class="cls-4" d="M149.83,326.94s7.64-3.17,5.22-13.98c-2.42-10.81-15.84-5.59-17.7-2.24s-4.47,17.52,12.49,16.21Z"/></g><g class="cls-6"><path class="cls-4" d="M87.77,198.91s3.91,.38,2.8-3.16c-1.12-3.54-7.08-2.05-6.9,0,.19,2.05,2.99,3.22,4.1,3.16Z"/></g><g class="cls-6"><path class="cls-4" d="M85.72,211.77s-.93,7.27,7.08,10.44c8.01,3.17,12.67,.19,12.86-4.47,.19-4.66-.1-8.2-3.59-10.06-3.49-1.86-16.91-6.34-16.35,4.1Z"/></g><path class="cls-1" d="M158.21,103.93c0-6.05-4.95-11-11-11h-38.13c-6.05,0-11,4.95-11,11v13.04c0,6.05,4.95,11,11,11h37.4l10.73,5.22-.88-8.82c-.17-.22-.34-.4-.53-.57,1.5-1.88,2.4-4.25,2.4-6.83v-13.04Z"/><g><path class="cls-2" d="M142.19,106.29c0,1.34-1.08,2.42-2.42,2.42h-29.26c-1.34,0-2.42-1.08-2.42-2.42h0c0-1.34,1.08-2.42,2.42-2.42h29.26c1.34,0,2.42,1.08,2.42,2.42h0Z"/><path class="cls-2" d="M132.31,117.1c0,1.24-1,2.24-2.24,2.24h-19.75c-1.23,0-2.24-1-2.24-2.24h0c0-1.23,1-2.24,2.24-2.24h19.75c1.23,0,2.24,1,2.24,2.24h0Z"/></g><path class="cls-4" d="M391.71,0h-41.17c-4.94,0-8.95,4.01-8.95,8.95v10.19c0,4.94,4.01,8.95,8.95,8.95h16.97c1.09,2.03,2.99,5.19,4.93,6.65,1.16,1.35,.77-1.46,.77-2.89,0-1.23,.7-2.94,2.76-3.76h15.74c4.94,0,8.95-4.01,8.95-8.95V8.95c0-4.94-4-8.95-8.95-8.95Z"/><path class="cls-2" d="M395.45,8.82c0,1.23-.75,2.24-1.68,2.24h-44.54c-.93,0-1.68-1-1.68-2.24h0c0-1.23,.75-2.24,1.68-2.24h44.54c.93,0,1.68,1,1.68,2.24h0Z"/><path class="cls-2" d="M389.92,19.13c0,1.22-.56,2.21-1.24,2.21h-39.88c-.69,0-1.24-.99-1.24-2.21h0c0-1.22,.56-2.21,1.24-2.21h39.88c.69,0,1.24,.99,1.24,2.21h0Z"/><g><path class="cls-1" d="M411.66,75.45l4.91-7.53s-5.28-19.59,13.17-25.18c18.45-5.59,29.45,9.69,24.23,24.04-5.22,14.35-27.21,17.33-36.15,7.08l-6.15,1.59Z"/><g><rect class="cls-2" x="430.8" y="66.78" width="5.22" height="2.92"/><path class="cls-2" d="M431.17,64.73v-5.71s2.61-.25,2.86-1.74c.25-1.49-1.43-1.86-2.55-.5l-3.11-2.05s2.3-6.71,8.51-5.16,4.29,7.7,3.29,9.01c-.99,1.3-4.38,2.49-4.38,2.49l-.09,3.66h-4.54Z"/></g></g><path class="cls-9" d="M202.01,402.97s41.93-.37,46.4-1.12c0,0,21.8-2.8,24.79-5.4,2.98-2.61-9.88-8.01-18.26-10.62-8.39-2.61-50.32-5.59-74.36-3.82-24.04,1.77-51.25,10.18-29.07,17.53,12.11,3.62,34.2,2.5,34.2,2.5l16.31,.93Z"/><path class="cls-10" d="M236.48,388.75l4.19,3.21s4.66,.57,5.12,3c.47,2.42-2.61,4.47-12.95,4.57-3.45,.19-7.92-1.86-11.18-2.24-3.26-.37-6.99-1.4-6.52-12.95,2.33-9.22,18.08,3.79,21.34,4.41Z"/><path class="cls-10" d="M178.16,383.95s1.77,10.73-4.52,12.69c-5.73,2.42-7.97,3.17-9.37,4.01-1.4,.84-11.18,.58-13.79-1.11-2.61-1.69-1.02-5.7,3.17-6.44l6.56-5.53s16.9-9.54,17.95-3.62Z"/><path class="cls-14" d="M189.27,301.91s-8.51,67.25-8.7,70.41c-.19,3.17-1.49,10.81-2.98,12.58-1.49,1.77-5.4,5.37-11.83,7.07-6.43,1.69-8.01-.64-7.73-2.5,0,0,8.11-6.43,9.41-11.74,1.3-5.31,2.14-73.79,2.14-80.55s18.7-1.29,19.69,4.73Z"/><path class="cls-14" d="M218.1,298.18l11.18,83.99,7.21,6.58s-2.33,6.21-13.51,1.37c-5.87-2.8-7.83-5.78-7.83-5.78,0,0-14.82-76.97-17.42-81.63-2.61-4.66,18.76-7.02,20.38-4.53Z"/><path class="cls-11" d="M213.16,225.37s-.72,7.83,1.33,15.65,11.93,54.23,11.93,54.23c0,0-4.29,13.6-34.66,10.06-26.47-3.09-31.62-9.32-31.62-9.32,0,0,1.62-18.24,3.39-30.08,1.77-11.85,5.68-27.32,5.87-38.31,.19-11,41.7-16.59,43.77-2.24Z"/><path class="cls-12" d="M210.86,170.96s-2.05-19.01-2.24-29.17c-.19-10.16-13.32-25.25-29.63-13.23,0,0-3.2-1.83-2.27,2.89,0,0-5.34,1.12-8.2,15.16-2.86,14.04-6.83,30.07-8.08,33.79-1.24,3.73,46.65,5.09,50.41-9.44Z"/><g><path class="cls-14" d="M196.39,164.12v13.36l-12.33,1.3,.17-17.32s12.16-4.05,12.16,2.66Z"/><path class="cls-14" d="M204.24,147.01s-12.86,.84-21.99-11.09c0,0-3.91,1.49-2.98,8.85,0,0-1.55,.59-3.54-.59-1.99-1.18-4.41,.75-3.35,4.04,1.06,3.29,4.1,2.55,4.1,2.55,0,0,1.77,15.25,14.26,15.81,12.49,.56,13.42-14.35,13.51-19.57Z"/></g><path class="cls-14" d="M235.18,205.8s8.57-8.57,17.98-17.05c3.17-3.35,5.22-8.01,12.95-7.92,7.73,.09,11.27,0,13.79-.65,2.52-.65,4.94-.84,4.94,.65s-10.25,4.75-15.65,5.68c-.84-.09-1.68,0-1.68,0,0,0-16.87,22.83-22.55,28.79-5.68,5.96-10.62,5.68-14.63,0-4.01-5.68,4.85-9.5,4.85-9.5Z"/><path class="cls-14" d="M145.23,205.72s-21.03-20.98-22.15-22.28c-1.12-1.3-7.73-1.58-10.16-1.58s-8.95,.28-10.34,0c-1.4-.28-4.66,2.8,3.17,4.94s11.74,2.52,15.28,8.2c3.54,5.68,17.8,26.93,23.2,28.61,5.4,1.68,8.76,1.02,11.83-4.01,3.07-5.03-10.84-13.87-10.84-13.87Z"/><path class="cls-7" d="M237.85,200.03l-3.73-2.36s-.05-.07-.12-.17c-.99,2.82-4.77,13.68-6.31,19.3l2.7,2.37s6.83-12.18,7.45-19.13Z"/><path class="cls-2" d="M234,197.49c-1.42-2.04-16.1-23.17-20.44-26.63-3.45-3.07-16.31,2.7-17.24,2.8,0,0-1.02,2.89-5.31,2.8-4.29-.09-6.9-2.89-6.9-2.89v-1.03s-7.87-2.61-12-3.07-7.57,3.54-10.55,7.36c-2.44,3.12-8.85,15.81-14.06,22.08,1.36,3.81,5.62,14.33,12.63,19.03,1.24-1.6,2.7-3.76,3.58-5.98,0,0,.56,9.6,.56,12.02s-1.77,6.99,11.55,7.92c13.32,.93,32.8,3.35,39.42-6.62,1.77-5.6,.47-19.01,.47-19.01l11.99,10.52c1.54-5.62,5.31-16.48,6.31-19.3Z"/><path class="cls-7" d="M147.51,198.91c-1.17,1.41-2.28,2.5-3.27,3.08,0,0,2.89,15.37,13.32,20.22l.28-1.58s1.04-1.06,2.29-2.69c-7.01-4.7-11.27-15.22-12.63-19.03Z"/><path class="cls-3" d="M215.71,206.77c-.1,0-.21-.03-.3-.1l-4.8-3.63-.02-.21c-1.98-18.1,3.09-26.57,3.3-26.92,.14-.23,.45-.31,.69-.16,.23,.14,.31,.45,.16,.69-.05,.08-5.06,8.49-3.18,26.07l4.46,3.37c.22,.17,.26,.48,.1,.7-.1,.13-.25,.2-.4,.2Z"/><path class="cls-3" d="M192.49,181.8c-2.52,0-6.97-.49-9.24-3.65-.16-.22-.11-.54,.11-.7,.22-.16,.54-.11,.7,.11,2.86,3.99,10.08,3.16,10.16,3.15,.27-.04,.52,.16,.56,.44,.03,.27-.16,.52-.43,.56-.09,.01-.81,.09-1.85,.09Z"/><path class="cls-3" d="M171.35,196.24s-.05,0-.08,0c-.27-.04-.46-.3-.41-.57,1.81-11.12-3.69-19.69-3.75-19.77-.15-.23-.09-.54,.14-.69,.23-.15,.54-.09,.69,.14,.24,.36,5.77,8.96,3.9,20.48-.04,.25-.25,.42-.49,.42Z"/><path class="cls-3" d="M163.52,213.2c-.08,0-.17-.02-.24-.06-.24-.13-.33-.44-.19-.68l2.8-5.03c.13-.24,.44-.33,.68-.19,.24,.13,.33,.44,.19,.68l-2.8,5.03c-.09,.16-.26,.26-.44,.26Z"/><polygon class="cls-7" points="218.83 164.96 226.42 168.35 229.29 164.25 219.25 163.31 218.83 164.96"/><path class="cls-7" d="M218.41,161.73c.37,0,7.36-5.12,7.36-5.12l-2.95-4.04-5.81,7.68,1.4,1.48Z"/><polygon class="cls-7" points="156.51 168.35 158.21 168.35 154.3 158.28 150.11 161.73 156.51 168.35"/><path class="cls-7" d="M154.67,172.35l-8.48,3.26s-2.7-1.58-1.4-5.22h9.88v1.96Z"/><path class="cls-9" d="M446.7,384.34s7.64,.87,7.64,3.51-11.74,6.37-49.57,6.74c-37.83,.37-88.16,2.8-83.62-5.12,4.54-7.92,35.35-11.26,35.35-11.26,0,0,21.57,2.41,31.1,2.78s54.63,.56,59.1,3.35Z"/><path class="cls-12" d="M430.55,369.12s1.99,5.25,9.69,6.54c7.7,1.29,10.44,4.39,9.44,8.74-.99,2.11-8.99,2.98-17.04,3.11s-21.6,1.99-22.71-4.47c-.25-1.62,1.37-14.54,1.37-14.54,0,0,16.28-5.34,19.26,.62Z"/><path class="cls-12" d="M363.58,374.96s0,8.57-1.12,11.55c-1.12,2.98-2.98,4.97-13.54,4.72-10.56-.25-21.74,.87-25.35-1.24-3.6-2.11-4.35-7.45,5.96-9.57,10.31-2.11,12.8-2.11,16.9-11.68,4.1-9.57,16.65,2.24,17.15,6.21Z"/><path class="cls-11" d="M415.76,205.71s5.59,61.66,8.57,86.76c.87,10.06,9.32,71.56,8.2,77.34,0,0-12.86,9.69-27.95,.19,0,0-16.59-125.79-17.15-127.47-.56-1.68-2.61-7.64-3.54-.37s-11.49,122.13-14.47,130.08c0,0-.44,3.73-9.13,3.42-8.7-.31-18.7-2.8-19.75-2.48,0,0,5.56-69.01,8.03-126.91,2.47-57.9,.73-85.8,67.2-40.54Z"/><path class="cls-8" d="M452.04,201.27s2.73,1.24,5.09,5.59c2.36,4.35,3.07,6.21,4.1,6.49,0,0,.22,3.73-4.6,2.14,0,0-.71,3.17-5.93,5.03s-13.05,4.38-11.18-16.49c0,0,11.02-3.79,12.52-2.76Z"/><path class="cls-8" d="M348.12,87.93s6.8-8.48,11-11.27-2.52-3.63-4.29-2.05c0,0,.19-3.26-5.22-5.68-5.4-2.42-10.62-1.4-12.49,13.88-2.52,13.32,4.29,8.48,11,5.12Z"/><path class="cls-12" d="M417.17,197.1s1.49,7.08,0,9.82c-1.49,2.73-34.33,9.39-68.13,1.44-2.73-1.12,0-9.57,0-13.17,0-3.6,66.39-1.19,68.13,1.92Z"/><path class="cls-12" d="M381.25,103.49s11.77-1.24,19.35-.75,19.44,1.3,24.1,12.86c4.66,11.55,29.26,82.74,29.26,82.74,0,0-2.8,10.62-16.21,6.34l-18.64-44.17s4.97,29.57-2.98,38.51c0,0-12.67,11.68-63.36,3.23,0,0-8.94-5.72-7.95-13.17,.99-7.45,3.74-52.98,3.74-52.98,0,0-17.9,9-25.35,10.74-7.45,1.74-19.38-3.23-11.43-21.87,7.95-18.64,22.12-44.73,22.12-44.73,0,0,12.55,.99,15.28,9.19l-16.28,32.05s14.66-15.22,26.21-16.9c3.4-.49,22.14-1.12,22.14-1.12Z"/><path class="cls-5" d="M457.78,216.15c-.08,0-.17-.02-.25-.06-2.64-1.49-4.4-6.7-4.47-6.92-.04-.21-.25-1.29-2.01-1.39-.27-.02-.48,.1-.62,.35-.4,.72-.39,2.91,2.18,6.52,.16,.22,.11,.54-.12,.7-.22,.16-.54,.11-.7-.12-2.66-3.75-2.9-6.38-2.23-7.58,.33-.59,.9-.9,1.55-.87,2.11,.12,2.83,1.47,2.92,2.17h0s1.7,4.98,3.99,6.27c.24,.14,.33,.44,.19,.68-.09,.16-.26,.25-.44,.25Z"/><path class="cls-5" d="M441.48,220.34c-.2,0-.38-.12-.46-.31-.24-.58-2.29-5.7-.92-7.74,.26-.39,.78-.86,1.74-.86,1.25,0,1.74,1.47,2.07,2.44,.05,.15,.1,.28,.14,.41,.09,.26-.04,.55-.3,.64-.26,.09-.55-.04-.64-.3-.05-.13-.1-.28-.15-.43-.24-.7-.59-1.76-1.12-1.76-.56,0-.79,.24-.91,.42-.81,1.21,.19,4.81,1.01,6.8,.11,.25-.02,.55-.27,.65-.06,.03-.13,.04-.19,.04Z"/><path class="cls-5" d="M444.95,218.39c-.19,0-.37-.11-.46-.29-.77-1.71-3.13-7.37-1.18-8.55,.58-.35,1.14-.42,1.67-.23,.79,.29,1.41,1.16,1.89,2.63,.08,.26-.06,.54-.32,.63-.27,.09-.54-.06-.63-.32-.49-1.51-1.02-1.9-1.29-2-.24-.09-.49-.04-.8,.14-.8,.49,.17,4.16,1.58,7.29,.11,.25,0,.55-.25,.66-.07,.03-.14,.04-.21,.04Z"/><path class="cls-5" d="M448.26,216.83c-.17,0-.34-.09-.43-.25-.32-.56-3.1-5.57-2.25-8.12,.2-.61,.59-1.04,1.16-1.29,.78-.23,1.44-.16,2.02,.21,1.3,.82,1.64,2.82,1.65,2.91,.04,.27-.14,.53-.41,.57-.27,.04-.53-.14-.57-.41-.08-.46-.44-1.75-1.2-2.23-.33-.21-.7-.24-1.15-.11-.24,.11-.43,.33-.55,.67-.6,1.8,1.36,5.89,2.17,7.31,.14,.24,.05,.54-.19,.68-.08,.04-.16,.07-.25,.07Z"/><path class="cls-5" d="M349.49,80.75c-.41,0-.8-.13-1.1-.4-.64-.55-.76-1.5-.31-2.48,.75-1.64,2.29-4.16,2.35-4.27,.14-.24,.45-.31,.69-.17,.24,.14,.31,.45,.17,.69-.02,.03-1.57,2.58-2.3,4.16-.25,.55-.23,1.06,.06,1.31,.29,.25,.79,.19,1.32-.15,1.22-.79,3.33-3.95,4.04-5.11,.15-.24,.46-.31,.69-.16,.24,.14,.31,.45,.16,.69-.11,.18-2.69,4.35-4.35,5.42-.48,.31-.97,.46-1.42,.46Z"/><path class="cls-5" d="M345.89,79.75c-.46,0-.92-.13-1.35-.4-.34-.21-.54-.57-.61-1.09-.22-1.77,1.34-5.5,2.97-7.14,.2-.2,.51-.2,.71,0s.2,.51,0,.71c-1.38,1.38-2.86,4.86-2.68,6.31,.03,.22,.09,.32,.13,.35,.41,.24,.81,.31,1.23,.2,1.2-.31,2.11-1.87,2.12-1.89,.14-.24,.44-.32,.68-.18,.24,.14,.32,.44,.18,.68-.04,.08-1.13,1.94-2.73,2.36-.22,.06-.43,.08-.64,.08Z"/><path class="cls-5" d="M343.71,77.56c-.58,0-1.38-.11-1.89-.63-.28-.28-.58-.81-.41-1.68,.42-2.24,2.44-4.77,2.52-4.88,.17-.21,.49-.25,.7-.08,.22,.17,.25,.49,.08,.7-.02,.02-1.95,2.45-2.32,4.44-.1,.55,.08,.74,.14,.8,.39,.4,1.39,.34,1.71,.29,.27-.04,.53,.14,.57,.41,.04,.27-.14,.53-.41,.57-.07,.01-.34,.05-.7,.05Z"/><path class="cls-5" d="M340.62,75.46c-.39,0-.78-.1-1.06-.4-.73-.76-.42-2.35,1-4.99,.13-.24,.43-.33,.68-.21,.24,.13,.33,.43,.2,.68-1.68,3.14-1.22,3.76-1.16,3.82,.22,.23,1.02,.02,1.49-.21,.25-.12,.55-.02,.67,.23,.12,.25,.02,.55-.23,.67-.12,.06-.86,.41-1.59,.41Z"/><path class="cls-8" d="M388.18,93.74v9.44s1.99,2.67,0,4.78c-1.99,2.11-9.44,2.98-13.05-.5-2.61-2.67-1.43-4.1-1.43-4.1v-9.94s13.42-1.24,14.47,.31Z"/><path class="cls-8" d="M397.13,65.01s.93,13.05,0,19.01c-.93,5.96-2.24,12.39-16.31,12.39s-14.82-4.57-17.61-16.77c0,0-4.47,1.58-5.31-3.63-1.13-7,4.07-6.55,4.07-6.55,0,0,3.57-12.55,6.93-13.67,3.35-1.12,12.77-1.58,13.7-1.12,.93,.47,14.54,10.34,14.54,10.34Z"/><path class="cls-11" d="M402.1,59.64s1.37,9.07-10.44,5.96c-11.8-3.11-1.99-10.56-22.24-7.83-3.11,.87-2.11,5.22-2.11,7.21s-.99,7.33-7.95,5.22c0,0-1.62-2.44-2.24-3.6-.54-1.01-4.35-11.68,8.45-13.67,0,0-.78-2.55,.25-2.83,1.02-.28,1.96,2.8,1.96,2.8,0,0,2.21-9.35,17.98-7.36,7.7,.93,8.57,14.54,16.34,14.1Z"/></svg>