<?xml version="1.0" encoding="UTF-8"?><svg xmlns="http://www.w3.org/2000/svg" viewBox="0 0 100 100"><defs><style>.e{fill:#aaa;}.f{fill:#383838;}</style></defs><g id="a"/><g id="b"><path class="e" d="M80.29,29.03c-.97-4.8-2.66-8.34-3-9.03-.15-.3-.31-.61-.47-.91-.12-.23-.23-.42-.31-.57-.19-.33-.35-.62-.51-.89-.76-1.26-1.62-2.5-2.56-3.7-.11-.15-.24-.3-.36-.45-.46-.57-1.04-1.23-1.73-1.96-.17-.18-.35-.37-.54-.56-.39-.41-.79-.8-1.22-1.19-.22-.19-.44-.41-.67-.61h0C63.48,4.38,56.33,.99,48.05,.6,33.76-.07,21.12,8.45,15.74,19.69c-5.97,12.46-1.37,25.47-.9,26.76,.36,1.01,.71,1.78,.92,2.25,5.02,11.17,20.13,34.48,30.86,50.6,.03,.04,.05,.08,.08,.12,0,0,0,0,0,0,0,0,0,0,0-.02,.04-.07,.09-.15,.13-.21,.24-.41,.49-.81,.72-1.22,.05-.08,.1-.17,.15-.25,2.83-4.72,5.49-9.14,7.97-13.28,.63-1.03,1.24-2.06,1.84-3.06,2.67-4.43,5.12-8.5,7.36-12.2,1.04-1.73,2.04-3.38,2.98-4.94,4.27-7.05,7.52-12.36,9.65-15.77,.23-.38,.82-1.32,1.42-2.65,2.62-5.78,2.36-11.95,1.35-16.82Zm-34.32,23.16c-10.62,0-19.23-8.61-19.23-19.23s8.61-19.23,19.23-19.23,19.22,8.61,19.22,19.23-8.61,19.23-19.22,19.23Z"/><path class="f" d="M75.74,68.58c-1.25,1.23-3.67,1.25-6.06,1.98,1.21,.34,1.99,.56,3.34,.94-3.96,.93-7.34,1.72-10.71,2.51,0,.12,0,.26-.02,.38,2.15,.31,4.32,.62,6.8,.96-8.26,3.45-11.03,5.17-11.57,6.06-.02,.02-.39,.66-.94,1.57-.43,.72-.79,1.31-1.03,1.71-.27-6.38,1.23-10.67,2.65-13.41,.41-.79,1.96-2.84,4.93-7.05,2.38-3.38,4.8-6.76,7.17-10.15,.83-1.17,1.49-2.45,2.53-4.19-.7,.41-.94,.47-1.05,.62-1.95,2.69-3.91,5.35-5.88,8.03-3.08,4.19-6.14,8.41-9.05,12.71-2.83,4.19-5.18,8.73-7.52,13.24-.57,1.1-1.65,3.15-.91,5.17,.53,1.43,1.75,2.26,2.55,2.69l-1.74,2.89c-1.09,1.85-1.49,2.51-1.52,2.53l-.03,.02s0,0,.03-.02c5.05-1.7,10.14-3.34,15.16-5.15,5.04-1.8,10.02-3.79,15.04-5.69,.06,.2,.14,.39,.22,.58-10.42,3.96-20.84,7.91-31.43,11.93,0,0,0,0-.02,0s-.02,0-.03,0l-.05-.13c-.07-.17-.13-.34-.19-.5-1.21-3.41-1.4-6.79-.78-10.3,1.17-6.35,4.09-11.94,7.6-17.25,4.2-6.36,8.61-12.6,12.74-19.02,.2-.32,.41-.64,.6-.97,0,0,.02-.02,.02-.03,2.09-2.62,5.59-13.23,5.64-15.49,.21-1.32,.37-2.7,.48-4.14,.64-8.96-1.7-16.58-2.57-19.17-.47-1.38-.92-2.5-1.24-3.29,.23,.2,.45,.42,.67,.61,.43,.42,.84,.81,1.22,1.19,.19,.19,.37,.38,.54,.56,.69,.73,1.27,1.4,1.73,1.96,.12,.15,.25,.3,.36,.45,.81,1.01,1.34,1.78,1.53,2.07,.18,.26,.55,.82,1.03,1.63,.16,.27,.33,.57,.51,.89,.08,.15,.19,.34,.31,.57,.54,.99,1.4,2.66,2.12,4.62,1.18,3.19,1.73,6.29,1.95,8.91,.87-.66,1.79-1.43,2.73-2.33,.38-.38,.74-.75,1.09-1.11,1.16,6.04,.99,11.51-4.42,15.66,.19,.13,.41,.27,.6,.42,1.79-1.04,3.59-2.08,5.63-3.28-.79,5.11-2.58,9.63-5.13,13.79-1.31,2.12-3.29,3.83-4.84,5.57,1.66-.63,3.74-1.4,5.81-2.2,.15,.19,.32,.37,.47,.56-2.32,3-4.41,6.26-7.09,8.9Z"/><ellipse class="f" cx="80.2" cy="86.23" rx="1.26" ry=".54" transform="translate(-23.32 30.1) rotate(-18.61)"/></g><g id="c"/><g id="d"/></svg>