<?xml version="1.0" encoding="UTF-8"?><svg xmlns="http://www.w3.org/2000/svg" viewBox="0 0 100 100"><defs><style>.ak{fill:#fff;}.al{fill:#fb957d;}</style></defs><g id="a"/><g id="b"/><g id="c"/><g id="d"/><g id="e"/><g id="f"/><g id="g"/><g id="h"/><g id="i"/><g id="j"/><g id="k"/><g id="l"/><g id="m"/><g id="n"/><g id="o"/><g id="p"/><g id="q"/><g id="r"/><g id="s"/><g id="t"/><g id="u"/><g id="v"/><g id="w"/><g id="x"/><g id="y"/><g id="a`"><path class="al" d="M38.18,6.6c-.36,.08-.7,.15-1.01,.24,.33-.11,.67-.18,1.01-.24Z"/><path class="al" d="M41.36,6.28c-1.18,.01-2.25,.14-3.18,.32,.22-.06,.44-.1,.67-.13,.87-.14,1.71-.19,2.51-.19Z"/><path class="al" d="M96.33,60.01c-.29,4.7-3.08,7.65-3.81,8.37-.14,.83-.4,2.09-.95,3.56-.55,1.47-1.77,3.7-2.69,4.82-1.97,2.37-6.12,3.91-10.92,3.92-.4,.47-6.16,6.9-14.97,5.67-8.36-1.17-12.18-8.23-12.54-8.91-3.75,4.29-9.54,6.04-14.7,4.45-6.33-1.94-8.64-7.92-8.89-8.64-9,2.58-18.45-1.14-22.84-8.72-2.97-5.11-3.27-11.39-1.06-16.99,.53-1.3,1.18-2.57,1.98-3.78l.06-.1c-.02-.1-.08-.34-.13-.7,0,0-.01,0,0-.01-.16-1.08-.26-3.16,.75-5.19,.25-.52,.58-1.03,1-1.52,1.72-2.04,3.97-2.56,4.71-2.7-.91-4.07,.69-8.26,3.99-10.56,4.49-3.11,9.56-.94,9.89-.79-.76,1.39-1.2,2.69-1.48,3.72-.6,1.32,.11,2.67,.99,2.9,.78,.21,1.89-.4,2.24-1.6,.13-.99,.46-2.55,1.45-4.17,1.45-2.39,3.48-3.51,4.82-4.23,1.21-.65,4.16-2.18,8.13-1.76,1.93,.21,3.45,.84,4.15,1.15,1.15,.53,2.05,1.14,2.68,1.63-.4,.92-.68,1.78-.87,2.5-.6,1.32,.11,2.67,.99,2.9,.78,.21,1.89-.4,2.24-1.6-.01-.61,.05-2.53,1.45-4.17,1.47-1.75,3.49-2.06,4.44-2.21,.72-.11,1.67-.25,2.8,.11,1.74,.56,2.64,1.97,2.93,2.3,.64,.73,1.37,1.93,1.62,3.95,.1,1.09,.93,1.83,1.66,1.8,.82-.04,1.69-1.08,1.42-2.34-.13-.83-.25-1.67-.38-2.5,1.99,.01,8.77,.34,14.3,5.67,4.15,4,5.4,8.68,5.8,10.59,1.02-.02,4.26,.04,6.72,2.35,3.16,2.97,3.77,8.46,1.1,13.27,.62,.99,2.17,3.78,1.93,7.56Z"/><path class="ak" d="M53.81,34.04c.01-.64,.02-1.95-.85-2.88-.67-.72-1.59-.92-2.11-.99-1.11,.02-2.22,.03-3.33,.05-.18,.01-1.61,.12-2.43,1.35-.51,.76-.51,1.55-.49,1.85,.34,7.19,.69,14.37,1.03,21.56,.24,2.02,2.04,3.44,3.87,3.24,1.58-.17,2.92-1.51,3.1-3.24,.76-10.61,1.17-18.47,1.21-20.93Z"/><ellipse class="ak" cx="49.2" cy="68.05" rx="3.48" ry="3.49"/><path class="ak" d="M23.85,73.87c.47-.06,.96-.15,1.49-.25,.54-.11,1.04-.24,1.51-.37-.33-.97-.66-2.31-.67-3.92-.04-3.15,1.13-5.52,1.8-6.66,.39-1.14-.18-2.28-.99-2.57-.91-.32-2.24,.38-2.47,1.76-.34,.89-.69,1.77-1.03,2.66-.48,.04-1.87,.11-3.24-.77-1.98-1.27-2.3-3.46-2.34-3.78,.09-.96-.68-1.77-1.57-1.76-.88,.01-1.62,.82-1.53,1.76,.02,.38,.32,4.82,3.96,6.89,1.69,.96,3.37,.99,4.22,.94-.17,1.08-.26,2.69,.27,4.51,.17,.59,.38,1.12,.61,1.57Z"/><path class="ak" d="M11.13,30.25c.94-.11,4.31-.37,7.51,1.83,2.21,1.52,3.28,3.47,3.73,4.43,.93,1.12,.59,2.6-.2,3.06-.7,.41-1.94,.1-2.58-.97-.2-.67-.81-2.35-2.47-3.65-2.46-1.92-5.28-1.5-5.78-1.42-.09-.39-.16-.84-.21-1.33-.07-.74-.05-1.41,0-1.96Z"/><path class="ak" d="M65.44,25.41c-.73,.03-1.56-.71-1.66-1.8-.24-2.02-.97-3.22-1.62-3.95-.29-.33-1.18-1.73-2.93-2.3-1.13-.36-2.08-.21-2.8-.11-.95,.15-2.97,.47-4.44,2.21-1.39,1.64-1.46,3.55-1.45,4.17-.35,1.2-1.46,1.81-2.24,1.6-.89-.23-1.6-1.58-.99-2.9,.19-.72,.46-1.58,.87-2.5-.63-.49-1.53-1.1-2.68-1.63-.7-.32-2.22-.94-4.15-1.15-3.97-.42-6.92,1.11-8.13,1.76-1.34,.72-3.37,1.84-4.82,4.23-.98,1.62-1.32,3.17-1.45,4.17-.35,1.2-1.46,1.81-2.24,1.6-.89-.23-1.6-1.58-.99-2.9,.27-1.04,.72-2.34,1.48-3.72h.01c.54-.78,3.31-4.77,8.52-6.77,.16-.06,.34-.12,.53-.18s.39-.14,.6-.2c.18-.05,.37-.11,.57-.15,.33-.1,.69-.17,1.07-.25,.98-.19,2.11-.33,3.36-.34,.24,0,.5,0,.75,.01,.22,.01,.45,.02,.68,.04,.22,.02,.45,.03,.67,.06,.03,0,.06,0,.1,.01,3.79,.48,6.52,2.08,7.47,2.7,.04,.02,.07,.05,.11,.07l.03-.03c2.41-3.03,6.33-4.34,9.95-3.34,2.75,.76,4.45,2.61,5.42,4.19,0,0,.01,.01,.01,.02,.81,1.31,1.14,2.43,1.17,2.54h.26c.13,.83,.25,1.67,.38,2.5,.27,1.26-.59,2.3-1.42,2.34Z"/><path class="ak" d="M94.13,52.64c-.1,.11-.2,.22-.3,.32-.19,.26-.47,.41-.75,.45-.42,.07-.74-.15-.79-.18-.58-.39-.63-1.28-.42-1.58,.02-.03,.1-.13,.21-.25,.14-.15,.26-.24,.27-.25,.1-.1,1.29-1.56,1.62-3.34,.31-1.66,.09-4.75-1.98-6.67-2.51-2.34-7.11-2.36-10.52,.54-.05,.1-.13,.24-.27,.34-.45,.32-1.26,.15-1.66-.36-.43-.55-.21-1.27-.18-1.33,.08-.1,.17-.22,.28-.34,3.49-4.01,9.56-4.42,13.56-.92,4,3.49,4.41,9.57,.92,13.58Z"/><path class="ak" d="M72.84,67.57c.33-.2,2.6-1.63,2.91-4.32,.15-1.26-.19-2.28-.43-2.83-.3-.84,.13-1.76,.94-2.06,.83-.31,1.8,.14,2.09,1.01,.33,.68,1.32,2.97,.61,5.74-.43,1.66-1.29,2.81-1.83,3.41,.97,.81,2.6,1.94,4.86,2.47,5.41,1.28,9.82-1.92,10.55-2.46-.15,.73-.35,1.54-.63,2.4-.26,.8-.54,1.53-.83,2.18-1.35,.56-4.97,1.84-9.46,.86-3.53-.77-5.9-2.57-7.01-3.54-.96,.49-2.53,1.09-4.45,.93-2.92-.25-5.23-2.52-6.43-4.65-.46-.82-.12-1.86,.68-2.23,.8-.37,1.84,.04,2.15,.96,.17,.27,1.36,2.15,3.69,2.48,1.08,.16,1.99-.08,2.6-.32Z"/><path class="ak" d="M12.07,50.34c-2.35,.63-5.59,.66-7.83-1.31-.54-.48-.96-.98-1.29-1.49,.53-1.3,1.18-2.57,1.98-3.78,.03,.26,.06,.5,.11,.71,.25,.6,.73,1.42,1.61,2.07,1.87,1.43,4.04,.96,4.35,.89,.87-.42,1.89,.02,2.19,.86,.3,.84-.2,1.81-1.11,2.05Z"/></g><g id="aa"/><g id="ab"/><g id="ac"/><g id="ad"/><g id="ae"/><g id="af"/><g id="ag"/><g id="ah"/><g id="ai"><g id="aj"/></g></svg>