<svg xmlns="http://www.w3.org/2000/svg" width="93.538" height="74.83" viewBox="0 0 93.538 74.83">
  <path id="chalkboard-user-solid" d="M86.523,0H30.4a7.141,7.141,0,0,0-7.015,7.254v6.777a17.648,17.648,0,0,1,9.222,2.6V9.354H84.053V51.446H74.7V44.43a2.338,2.338,0,0,0-2.338-2.338H58.33a2.338,2.338,0,0,0-2.338,2.338v7.015h-14A23.431,23.431,0,0,1,49.409,60.8H86.517a7.137,7.137,0,0,0,7.021-7.249V7.254A7.141,7.141,0,0,0,86.523,0ZM23.385,46.769a14.031,14.031,0,1,0,0-28.061,14.031,14.031,0,1,0,0,28.061Zm4.677,4.677H18.708A18.708,18.708,0,0,0,0,70.153,4.677,4.677,0,0,0,4.677,74.83H42.092a4.677,4.677,0,0,0,4.677-4.677A18.706,18.706,0,0,0,28.061,51.446Z" fill="#303a45"/>
</svg>
