<svg xmlns="http://www.w3.org/2000/svg" width="112" height="112" viewBox="0 0 112 112">
  <path id="copyright-solid" d="M56,0a56,56,0,1,0,56,56A56,56,0,0,0,56,0ZM43.575,68.381A17.12,17.12,0,0,0,55.8,73.5h0a17.082,17.082,0,0,0,12.213-5.114,5.255,5.255,0,1,1,7.465,7.4A27.516,27.516,0,0,1,55.8,83.994h0a27.527,27.527,0,0,1-19.677-8.216,28.188,28.188,0,0,1,0-39.572A27.527,27.527,0,0,1,55.8,27.99h0a27.516,27.516,0,0,1,19.677,8.216,5.255,5.255,0,0,1-7.465,7.4A17.09,17.09,0,0,0,55.8,38.489h0A17.112,17.112,0,0,0,43.575,43.6,17.673,17.673,0,0,0,43.575,68.381Z" fill="#fff"/>
</svg>
