<svg xmlns="http://www.w3.org/2000/svg" width="65.477" height="74.83" viewBox="0 0 65.477 74.83">
  <path id="user-doctor-solid" d="M51.446,18.708A18.774,18.774,0,1,1,32.607,0,18.735,18.735,0,0,1,51.446,18.708Zm-9.485,34.2a9.513,9.513,0,0,0-7.015,9.061v3.508a2.493,2.493,0,0,0,.818,1.652L38.1,69.466a2.336,2.336,0,0,0,3.3-3.3l-1.783-1.652V61.969A4.758,4.758,0,0,1,44.3,57.292a4.7,4.7,0,0,1,4.808,4.677v2.543l-1.652,1.652a2.336,2.336,0,0,0,3.3,3.3L53.1,67.128a2.347,2.347,0,0,0,.687-1.652V61.969a9.363,9.363,0,0,0-7.015-9.061V45.132A24.44,24.44,0,0,1,65.477,68.984v1.169A4.672,4.672,0,0,1,60.8,74.83H4.677A4.675,4.675,0,0,1,0,70.153V68.984A24.557,24.557,0,0,1,18.708,45.132V54.12a8.185,8.185,0,1,0,4.677,0V44.46c.395-.015.775-.029,1.169-.029H40.923c.395,0,.775.015,1.169.029ZM24.422,61.969a3.419,3.419,0,0,1-3.508,3.508,3.508,3.508,0,1,1,0-7.015A3.419,3.419,0,0,1,24.422,61.969Z" fill="#11b1a9"/>
</svg>
