<svg xmlns="http://www.w3.org/2000/svg" width="74.827" height="74.83" viewBox="0 0 74.827 74.83">
  <path id="gavel-solid" d="M74.852,31.613a3.486,3.486,0,0,0-1.028-2.474l-3.313-3.3a3.437,3.437,0,0,0-2.353-1.027,3.212,3.212,0,0,0-2.353,1.027l-.822.822L48.194,10.125l.822-.822A3.437,3.437,0,0,0,50.043,6.95,3.211,3.211,0,0,0,49.016,4.6L45.71,1.291A2.934,2.934,0,0,0,43.239,0a3.465,3.465,0,0,0-2.461,1.028L22.558,19.219A3.544,3.544,0,0,0,21.535,21.7a3.473,3.473,0,0,0,1.028,2.476l3.306,3.306a3.437,3.437,0,0,0,2.353,1.028,3.012,3.012,0,0,0,2.353-1.028l.822-.822,16.53,16.53-.822.822a3.437,3.437,0,0,0-1.028,2.353A3.211,3.211,0,0,0,47.1,48.721l3.306,3.306a3.5,3.5,0,0,0,4.952,0l18.2-18.211A2.231,2.231,0,0,0,74.852,31.613ZM33.315,34.8,24.78,43.466a4.675,4.675,0,0,0-6.621,0L1.4,60.229a4.673,4.673,0,0,0,0,6.612l6.613,6.613a4.664,4.664,0,0,0,6.609.005L31.382,56.7a4.673,4.673,0,0,0,0-6.612l8.54-8.54Z" transform="translate(-0.025)" fill="#fff"/>
</svg>
